<svg id="Ebene_1" data-name="Ebene 1" xmlns="http://www.w3.org/2000/svg" viewBox="0 0 318.9 283.46"><defs><style>.cls-1{fill:#fff;}.cls-2{fill:#1d1d1b;}</style></defs><title>logo</title><path class="cls-1" d="M331,205.43a141.55,141.55,0,0,0,20.38,204.13l131,22.76a141.39,141.39,0,0,0,50.29-29.1l33.39-157Z" transform="translate(-261.49 -155.91)"/><path class="cls-2" d="M438.84,439A141.41,141.41,0,0,0,483,432L352,409.22A140.94,140.94,0,0,0,438.84,439Z" transform="translate(-261.49 -155.91)"/><path class="cls-2" d="M580.4,297.46a141.56,141.56,0,0,0-248.82-92.37l235.11,40.84-33.39,157A141.19,141.19,0,0,0,580.4,297.46Z" transform="translate(-261.49 -155.91)"/><path class="cls-2" d="M525.53,439.37l7.76-36.48A141.39,141.39,0,0,1,483,432Z" transform="translate(-261.49 -155.91)"/><path class="cls-2" d="M297.28,297.46a141,141,0,0,1,34.29-92.37l-28.93-5L261.49,393.51,352,409.22A141.31,141.31,0,0,1,297.28,297.46Z" transform="translate(-261.49 -155.91)"/><path class="cls-2" d="M368.06,295.62q0,0.16-.08,7.28-0.08,3.76-.12,5.4t0,1.57q-20.66-.94-36.15-0.55H325.1q-1.41,0-1.41-.59a0.45,0.45,0,0,1,.35-0.52q0.35-.07,2.39-0.22,3.68-.23,4-2.11a14.93,14.93,0,0,0,.16-2.27V264q0-4.69-.08-5.16a2.08,2.08,0,0,0-.78-1.72,5.89,5.89,0,0,0-2.89-.47q-2.43,0-2.43-.7t2.15-.78q2.15,0,6-.08,14.4-.31,23.55-0.16h5.32q1.72,0,4.23-.23l0.7,8.53q0.39,4.07.39,5a0.69,0.69,0,0,1-.78.78q-0.79,0-1-2-0.71-5.4-4.36-7.86t-10.79-2.46q-2.2,0-7.54.23V280q8.65,0.08,10.89-1.21t3-6.69q0.39-2.89,1.18-2.9t0.71,1.41q0,1.41-.23,5.79-0.08,1.49-.08,4,0,6.73.16,10.17a7.41,7.41,0,0,1,.08,1.17q0,0.94-.71.94a0.69,0.69,0,0,1-.71-0.35,16.25,16.25,0,0,1-.47-2.54q-0.79-5.55-2.16-6.92t-6.33-1.37h-5.35v26.29h5q8.63-.16,10.52-0.39a11.08,11.08,0,0,0,4.55-1.72,8.6,8.6,0,0,0,2.71-3.36,37.12,37.12,0,0,0,1.61-6.65q0.24-1.17.79-1.17T368.06,295.62Z" transform="translate(-261.49 -155.91)"/><path class="cls-2" d="M392.08,308.81q0,0.59-3,.59-0.7,0-4.37-.16-1.87-.08-3.66-0.08t-6.39.16l-2.34.08q-1.72.08-1.71-.55t1.8-.55q2.74,0.08,3.17-.55t0.43-4.69V261.89q0-2.66-.56-3.16t-3.25-.51q-2,0-2-.58t2-.75a40.58,40.58,0,0,0,14.25-2.66v46.95a36.23,36.23,0,0,0,.27,6.22q0.27,0.9,1.92.82h2.35C391.74,308.22,392.08,308.42,392.08,308.81Z" transform="translate(-261.49 -155.91)"/><path class="cls-2" d="M419,304.31a3.82,3.82,0,0,1-1.5,2.27q-3.86,3.68-10.64,3.68-6.23,0-8.2-3.05a5.06,5.06,0,0,1-.91-2.19q-0.12-1-.12-5.24V296a29.84,29.84,0,0,0,.16-3.13l-0.16-1.64V278.57a2.08,2.08,0,0,0-.39-1.64,6.47,6.47,0,0,0-2.35-.23q-2.35,0-2.35-.63,0-.47.86-0.63,7.35-.24,12.68-8a2,2,0,0,1,1.1-1.1q0.47,0,.47,1.1-0.08,6.73.55,7.36t3.83,0.63a23.05,23.05,0,0,0,4.62-.31A0.7,0.7,0,0,1,417,275c0.21,0,.31.16,0.31,0.49a1,1,0,0,1-1,1.15q-3.18.08-7.06,0.08h-1.09v1.63q0,20.86.31,24.45,0.72,4.51,4.45,4.51,1.67,0,4.29-2.35a4.52,4.52,0,0,1,1.59-1.1Q419,303.92,419,304.31Z" transform="translate(-261.49 -155.91)"/><path class="cls-2" d="M450.06,299.77q0,1.72-2,4.54a13.51,13.51,0,0,1-11.42,6,17.73,17.73,0,0,1-13-5,17.23,17.23,0,0,1-5.09-12.83,17.73,17.73,0,0,1,4.93-12.79,16.35,16.35,0,0,1,12.28-5.13,15.84,15.84,0,0,1,8.53,2.19,11.19,11.19,0,0,1,5.09,7,25.28,25.28,0,0,1,.47,3.36q-1.8.21-14.48,0.31-2,0-4.93.16-0.23,2.81-.23,4.75,0,9.12,3.83,12.94a7.57,7.57,0,0,0,5.56,2.26,8.78,8.78,0,0,0,5.28-1.88,12,12,0,0,0,3.87-4.85q0.62-1.49,1-1.49C450,299.3,450.06,299.46,450.06,299.77Zm-9.86-13.69q0.08-6-.86-8.31a3.33,3.33,0,0,0-3.29-2.33q-4.77,0-5.48,10.64h9.62Z" transform="translate(-261.49 -155.91)"/><path class="cls-2" d="M481.91,280.36a5.28,5.28,0,0,1-1.33,3.72,4.46,4.46,0,0,1-3.44,1.45q-4.23,0-4.23-3.91a4.37,4.37,0,0,1,1-2.66,1,1,0,0,0,.23-0.55q0-.7-1-0.7-2.63,0-4,4.14-0.77,2.34-.77,11.47v12.57a2,2,0,0,0,2.11,2.26q1.25,0.08,3,.08,0.86,0.08.86,0.55a0.59,0.59,0,0,1-.7.63h-20.5c-0.57,0-.86-0.17-0.86-0.51s0.36-.51,1.1-0.51q3.21-.08,3.87-0.66t0.67-3.47l-0.08-21.07a6.53,6.53,0,0,0-.74-3.67q-0.74-1-3.33-1.25-2-.15-2.31-0.22a0.45,0.45,0,0,1-.27-0.51q0-.44.63-0.44h2.89a38.53,38.53,0,0,0,13-2.5,14.93,14.93,0,0,1,.39,3.6v3.29a13.84,13.84,0,0,1,3.25-5.34,6.68,6.68,0,0,1,4.58-1.55,6,6,0,0,1,4.34,1.64A5.55,5.55,0,0,1,481.91,280.36Z" transform="translate(-261.49 -155.91)"/><path class="cls-2" d="M524.87,308.85q0,0.63-2,.63H506.16q-1.1,0-1.1-.58t0.92-.51h0.61q2,0,2.34-.51a9.36,9.36,0,0,0,.35-3.5V289.19q0-8.41-1.08-10.07a3.66,3.66,0,0,0-3.31-1.42,5.43,5.43,0,0,0-3.93,1.48,5,5,0,0,0-1.54,3.75v23.65a1.56,1.56,0,0,0,.67,1.21,7.52,7.52,0,0,0,2.54.35q0.62,0,.63.47a0.53,0.53,0,0,1-.55.55q-0.55.08-3.91,0.08t-5.56.08q-4.3.16-8.76,0.16-0.94,0-.94-0.55t2.39-.62q2.39,0,2.78-.94l0.23-1.09v-18q0-7.57-.16-7.88-0.23-1.17-2.11-1.17H484q-1.25,0-1.25-.51c0-.34.31-0.54,0.93-0.58q8.72-.39,13.94-3.68a2.45,2.45,0,0,1,.86-0.31q0.62,0,.62,1.25v4.46a12.85,12.85,0,0,1,10.64-5.4q6.73,0,8.76,4.69a13.54,13.54,0,0,1,1.06,4.38q0.19,2.43.2,10v11.35q0,2.43.39,2.86t2.54,0.43Q524.86,308.22,524.87,308.85Z" transform="translate(-261.49 -155.91)"/><path class="cls-2" d="M332.8,340.83a5.68,5.68,0,0,0,1.73,2,7.5,7.5,0,0,0,2.54,1.16,12,12,0,0,0,3,.38,15.69,15.69,0,0,0,2.26-.18,7.87,7.87,0,0,0,2.26-.68,4.93,4.93,0,0,0,1.76-1.38,3.47,3.47,0,0,0,.7-2.24,3.15,3.15,0,0,0-.93-2.36,7.38,7.38,0,0,0-2.44-1.51,24.31,24.31,0,0,0-3.42-1.05q-1.91-.45-3.87-1a34.21,34.21,0,0,1-3.92-1.23,13.42,13.42,0,0,1-3.42-1.88,8.87,8.87,0,0,1-2.44-2.89,8.77,8.77,0,0,1-.93-4.2,9.39,9.39,0,0,1,1.18-4.8,10.69,10.69,0,0,1,3.09-3.39,13.48,13.48,0,0,1,4.32-2,18.38,18.38,0,0,1,4.82-.65,22.81,22.81,0,0,1,5.4.63,13.5,13.5,0,0,1,4.6,2,10.3,10.3,0,0,1,3.19,3.59,11,11,0,0,1,1.18,5.3h-7.64a6.36,6.36,0,0,0-.68-2.66,4.44,4.44,0,0,0-1.53-1.66,6.49,6.49,0,0,0-2.19-.85,13.48,13.48,0,0,0-2.69-.25,9.27,9.27,0,0,0-1.91.2,5.12,5.12,0,0,0-1.73.7,4.37,4.37,0,0,0-1.28,1.26,3.38,3.38,0,0,0-.5,1.91,3.22,3.22,0,0,0,.4,1.71,3.58,3.58,0,0,0,1.58,1.21,20.13,20.13,0,0,0,3.27,1.11q2.08,0.55,5.45,1.41,1,0.2,2.79.73a13.39,13.39,0,0,1,3.54,1.68,10.72,10.72,0,0,1,3,3.09,8.79,8.79,0,0,1,1.28,4.95,11,11,0,0,1-1,4.57,9.92,9.92,0,0,1-2.84,3.64,13.65,13.65,0,0,1-4.67,2.39,22.12,22.12,0,0,1-6.46.85,22.69,22.69,0,0,1-5.75-.73,14.45,14.45,0,0,1-4.92-2.29,11.28,11.28,0,0,1-3.39-4,11.85,11.85,0,0,1-1.21-5.73h7.64A6.57,6.57,0,0,0,332.8,340.83Z" transform="translate(-261.49 -155.91)"/><path class="cls-2" d="M356.56,320.43V313.8H386v6.63H375.2v29.24h-7.89V320.43H356.56Z" transform="translate(-261.49 -155.91)"/><path class="cls-2" d="M398,313.8v35.87h-7.89V313.8H398Z" transform="translate(-261.49 -155.91)"/><path class="cls-2" d="M416,313.8l8.39,24.67h0.1l7.94-24.67h11.1v35.87h-7.39V324.25H436l-8.79,25.42h-6.08l-8.79-25.17h-0.1v25.17H404.9V313.8H416Z" transform="translate(-261.49 -155.91)"/><path class="cls-2" d="M461.57,313.8L470,338.47h0.1L478,313.8h11.1v35.87h-7.39V324.25h-0.1l-8.79,25.42h-6.08L458,324.5h-0.1v25.17h-7.39V313.8h11.1Z" transform="translate(-261.49 -155.91)"/><path class="cls-2" d="M522.87,313.8v6.63H503.93v7.69h17.38v6.13H503.93V343h19.34v6.63H496V313.8h26.83Z" transform="translate(-261.49 -155.91)"/><path class="cls-2" d="M478.62,379.23a3.43,3.43,0,0,1-.6,1.37,8.57,8.57,0,0,1-1.22,1.61,5.94,5.94,0,0,1-4.45,1.7,7.63,7.63,0,0,1-5.83-2.52,8.8,8.8,0,0,1-2.34-6.23,9.58,9.58,0,0,1,2.23-6.47A7,7,0,0,1,472,366.1a6.8,6.8,0,0,1,4.61,1.61,5.56,5.56,0,0,1,2,4.12,19.78,19.78,0,0,1-3.29.15h-2.71l-4.65.12a16.13,16.13,0,0,0-.19,2.43,10.27,10.27,0,0,0,1.49,6,4.85,4.85,0,0,0,4.2,2.1,4,4,0,0,0,2.48-.7,8.51,8.51,0,0,0,2-2.67,0.47,0.47,0,0,1,.43-0.31A0.26,0.26,0,0,1,478.62,379.23Zm-3.37-7.9q-0.16-4.65-3.33-4.65T468,371.33h7.24Z" transform="translate(-261.49 -155.91)"/><path class="cls-2" d="M486.71,381.64a2,2,0,0,1-.6,1.47,2,2,0,0,1-1.45.61,2,2,0,0,1-1.49-.61,2.05,2.05,0,0,1-.6-1.5,2.06,2.06,0,0,1,2.09-2.07,2,2,0,0,1,1.45.61A2,2,0,0,1,486.71,381.64Z" transform="translate(-261.49 -155.91)"/><path class="cls-2" d="M515,356.77c0,0.21-.25.32-0.74,0.35a4.05,4.05,0,0,0-2.28.51,5.25,5.25,0,0,0-1.2,2.17l-1.32,3.61q-4.76,13.08-6.7,20.07a0.48,0.48,0,0,1-.39.46q-0.31,0-1.28-2.9-1.74-5.3-2.71-8-1-2.95-3.07-8.8l-1.89-5.22a3.26,3.26,0,0,0-.85-1.45,2.69,2.69,0,0,0-1.55-.41q-1.28,0-1.53-.08a0.28,0.28,0,0,1-.25-0.31q0-.35.77-0.35h0.35q0.7,0,2.42.06t2.46,0.06l1.49-.06q1.3-.06,3.7-0.06H501q0.7,0,.7.35t-1.39.42l-2.36.08q-0.81,0-.81.53a1.36,1.36,0,0,0,.07.32l0.3,1.05q0.08,0.31,3.79,10.91l2.36,7Q510,359,510,358.05t-1.9-.81h-1.2c-0.31,0-.47-0.11-0.47-0.34s0.39-.43,1.16-0.43h1.32q1.08,0.12,1.59.12h1.24l2.55-.12Q515,356.46,515,356.77Z" transform="translate(-261.49 -155.91)"/><path class="cls-2" d="M521.24,381.64a2,2,0,0,1-.6,1.47,2,2,0,0,1-1.45.61,2,2,0,0,1-1.49-.61,2.05,2.05,0,0,1-.6-1.5,2.06,2.06,0,0,1,2.09-2.07,2,2,0,0,1,1.45.61A2,2,0,0,1,521.24,381.64Z" transform="translate(-261.49 -155.91)"/></svg>